<?xml version="1.0" encoding="UTF-8" standalone="no"?>
<!-- Created with Inkscape (http://www.inkscape.org/) -->

<svg
   width="120.16887mm"
   height="119.6695mm"
   viewBox="0 0 120.16887 119.6695"
   version="1.1"
   id="svg1"
   xmlns="http://www.w3.org/2000/svg"
   xmlns:svg="http://www.w3.org/2000/svg">
  <defs
     id="defs1" />
  <g
     id="layer1"
     transform="translate(-42.945902,-42.588272)">
    <path
       style="fill:#e7046e;fill-opacity:1;stroke-width:0.264583"
       d="m 99.23852,161.93804 c -6.652091,-1.68337 -11.337047,-7.11568 -12.344046,-14.31319 -0.382701,-2.73537 -0.248983,-3.79647 1.679371,-13.32638 l 1.632903,-8.06979 -0.01193,-5.29167 c -0.01021,-4.52635 -0.09194,-5.58248 -0.56516,-7.30249 -2.404238,-8.73866 -8.320734,-16.01889 -16.36049,-20.131531 -8.325609,-4.258866 -16.249276,-3.591407 -16.249276,1.368777 0,0.947959 0.156818,1.281197 0.999476,2.123855 1.2338,1.233797 2.684701,1.698987 7.46719,2.39414 6.206236,0.902099 9.834869,2.056789 13.856081,4.409239 3.445047,2.01539 4.355171,3.09768 3.143398,3.73803 -0.648589,0.34274 -16.957315,-1.1268 -20.306771,-1.8298 -9.782547,-2.05319 -16.418461,-6.952228 -18.615874,-13.743365 -0.894768,-2.765295 -0.809405,-6.769901 0.205886,-9.658583 1.366959,-3.889242 3.988596,-6.62895 11.68251,-12.20865 6.599153,-4.785767 8.726347,-6.522238 15.868497,-12.953772 3.212983,-2.893303 6.87597,-6.00929 8.139969,-6.924418 2.757297,-1.996262 8.137239,-4.735729 11.194251,-5.700117 11.775075,-3.714652 24.138565,-2.026626 34.516155,4.7126 2.44202,1.585849 4.56632,3.3274 8.71069,7.14122 6.99689,6.438823 10.34588,9.176623 17.28605,14.131324 5.04703,3.603159 7.26144,5.521661 8.8405,7.659163 4.60243,6.23007 4.0499,14.222587 -1.38133,19.98163 -3.63015,3.849248 -8.02669,6.123668 -14.57376,7.539298 -2.21808,0.4796 -15.06436,1.78777 -19.11617,1.94664 -1.45106,0.0569 -2.01596,-0.19368 -2.03145,-0.90113 -0.01,-0.44582 1.86852,-1.86344 4.08026,-3.07954 4.4971,-2.47268 7.25346,-3.33947 13.51048,-4.248624 2.03729,-0.296021 4.35274,-0.732539 5.14545,-0.970042 2.75495,-0.825416 4.05315,-3.023031 2.99599,-5.0717 -1.04285,-2.020949 -3.18888,-2.864448 -6.68623,-2.628027 -5.82523,0.393785 -12.1876,3.61923 -17.33021,8.785656 -6.2052,6.233947 -8.8659,12.655647 -8.86198,21.388727 0.002,4.0277 0.27721,6.03503 2.09976,15.30466 1.4786,7.52026 1.64679,9.94968 0.91728,13.2496 -0.7043,3.18585 -2.03269,5.57484 -4.45957,8.02016 -2.15595,2.17233 -3.65377,3.12495 -6.49058,4.12803 -1.98117,0.70052 -6.44535,0.87212 -8.58732,0.33007 z m 6.35859,-20.4708 c 0.59648,-0.27089 1.37038,-0.89335 1.71979,-1.38325 l 0.63528,-0.89073 0.13478,-15.875 0.13477,-15.875 0.72889,-2.15831 c 0.91404,-2.70653 1.97274,-4.27422 6.13634,-9.086479 2.02145,-2.336385 3.62028,-4.457179 4.08901,-5.423958 2.63786,-5.440688 1.16586,-11.847229 -3.4519,-15.023616 -0.78204,-0.537935 -4.51751,-2.443125 -8.30105,-4.233756 -3.78355,-1.790634 -7.15343,-3.406839 -7.488641,-3.591568 -1.662779,-0.916342 -2.129435,-3.52062 -0.981768,-5.478963 0.94389,-1.610632 2.589519,-2.372019 5.052189,-2.337514 2.30184,0.03225 3.9025,0.711237 6.70553,2.844416 1.08042,0.822227 2.20215,1.494959 2.49275,1.494959 1.071,0 4.40639,-4.066555 4.40639,-5.37233 0,-1.833356 -5.5438,-5.58425 -9.80648,-6.634992 -2.00598,-0.494472 -5.67872,-0.559123 -7.70914,-0.135708 -3.243102,0.67631 -7.025752,3.30763 -8.588657,5.974524 -1.655212,2.824406 -2.179193,7.191682 -1.220546,10.17302 0.609719,1.896195 2.340591,4.382056 3.844141,5.520918 0.672735,0.509561 3.403362,1.930691 6.068062,3.158069 11.29798,5.203915 11.58883,5.40776 11.5908,8.123547 8e-4,1.113409 -0.15501,1.577448 -0.8589,2.557806 -1.05435,1.468462 -6.78744,8.223364 -7.06957,8.329576 -0.19037,0.07167 -2.62999,-2.673745 -9.222005,-10.377924 -2.801091,-3.273677 -3.655259,-3.92579 -4.808951,-3.671396 -1.198747,0.26433 -4.762499,4.067366 -4.762499,5.082273 0,0.145243 1.985875,2.562172 4.413056,5.370952 7.600802,8.795794 8.12492,9.554574 9.418505,13.635494 0.548654,1.73086 0.569992,2.29387 0.644451,17.00367 0.04236,8.36745 0.136292,15.47226 0.208754,15.78846 0.192302,0.83919 1.437559,2.21964 2.367739,2.62479 1.11903,0.48743 2.20577,0.4462 3.47888,-0.13198 z m 33.25241,-64.599261 c 1.30061,-0.361183 2.79595,-1.690635 3.40193,-3.024529 0.71492,-1.573705 0.63163,-3.248234 -0.24534,-4.932995 -1.85912,-3.57156 -6.73496,-3.867539 -9.22909,-0.560234 -2.05475,2.724655 -1.1393,6.419728 1.99632,8.057793 1.517,0.79249 2.4853,0.901755 4.07618,0.459965 z M 74.827278,66.247069 c 0.685097,-0.351565 1.505051,-1.805958 1.506207,-2.671633 0.0013,-0.942374 -0.620162,-2.151067 -1.379286,-2.682779 -0.331248,-0.232013 -1.134459,-0.412936 -1.833242,-0.412936 -1.025152,0 -1.381205,0.137512 -2.026251,0.782559 -2.668066,2.668066 0.361871,6.714497 3.732572,4.984789 z"
       id="path1" />
  </g>
</svg>
